<svg width="85" height="79" viewBox="0 0 85 79" fill="none" xmlns="http://www.w3.org/2000/svg">
<path fill-rule="evenodd" clip-rule="evenodd" d="M42.9701 0.0602621C55.2085 -0.406166 68.4141 1.69575 76.0423 11.2774C83.665 20.8522 82.3577 34.0886 79.543 45.9992C76.763 57.7632 72.0766 70.2566 60.9747 75.0386C50.2214 79.6704 38.8219 73.2491 28.3262 68.0599C18.0323 62.9705 6.68375 57.6967 3.55245 46.6485C0.275365 35.0859 5.15214 22.858 12.9147 13.6833C20.3896 4.84867 31.4059 0.500992 42.9701 0.0602621Z" fill="#EBFEFF"/>
<path d="M7.29476 44.749C1.17547 34.8801 -0.801898 24.3703 7.95124 15.652C12.3357 11.2811 18.0833 9.09821 23.8308 9.09821C42.9849 9.09821 39.684 22.043 42.1518 24.5122C44.6195 22.043 41.3186 9.09821 60.4727 9.09821C66.2203 9.09821 71.9678 11.2811 76.3523 15.652C97.721 36.9421 55.1338 68.8891 44.4824 76.1574C41.5955 78.1275 42.5789 78.054 39.5601 75.9788C35.4894 73.1839 27.2609 67.1344 19.5465 59.5535" stroke="#2F3033" stroke-width="2" stroke-miterlimit="22.9256" stroke-linecap="round" stroke-linejoin="round"/>
<path d="M2 51.3945H19.4615L24.0305 24.2729L29.314 51.3945H36.7463L41.3153 64.2421C45.4757 53.1939 48.2229 46.1515 51.7479 34.2652L56.831 51.3945C63.1059 51.3945 65.8004 51.3945 72.0779 51.3945" stroke="#0EC0CA" stroke-width="2" stroke-miterlimit="22.9256" stroke-linecap="round" stroke-linejoin="round"/>
</svg>
