<?xml version="1.0" encoding="UTF-8"?>
<svg xmlns="http://www.w3.org/2000/svg" xmlns:xlink="http://www.w3.org/1999/xlink" width="450pt" height="449.999984pt" viewBox="0 0 450 449.999984" version="1.2">
<defs>
<clipPath id="clip1">
  <path d="M 6.609375 14.695312 L 428 14.695312 L 428 435.445312 L 6.609375 435.445312 Z M 6.609375 14.695312 "/>
</clipPath>
</defs>
<g id="surface1">
<g clip-path="url(#clip1)" clip-rule="nonzero">
<path style=" stroke:none;fill-rule:nonzero;fill:rgb(5.488586%,75.289917%,79.219055%);fill-opacity:1;" d="M 413.273438 194.84375 L 379.632812 167.765625 C 377.015625 165.65625 374.976562 162.917969 373.695312 159.808594 C 372.417969 156.699219 371.941406 153.316406 372.3125 149.972656 L 376.980469 107.007812 C 377.609375 101.304688 376.949219 95.53125 375.050781 90.113281 C 373.152344 84.699219 370.0625 79.78125 366.007812 75.71875 C 361.953125 71.660156 357.039062 68.566406 351.628906 66.660156 C 346.21875 64.757812 340.453125 64.09375 334.753906 64.722656 L 291.777344 69.339844 C 288.4375 69.710938 285.058594 69.234375 281.953125 67.953125 C 278.847656 66.671875 276.113281 64.628906 274.003906 62.011719 L 246.953125 28.355469 C 243.246094 24.066406 238.660156 20.628906 233.507812 18.273438 C 228.359375 15.914062 222.761719 14.695312 217.097656 14.695312 C 211.4375 14.695312 205.835938 15.914062 200.6875 18.273438 C 195.535156 20.628906 190.953125 24.066406 187.246094 28.355469 L 160.195312 62.011719 C 158.09375 64.636719 155.359375 66.6875 152.25 67.96875 C 149.144531 69.25 145.761719 69.722656 142.421875 69.339844 L 99.5 64.722656 C 93.800781 64.09375 88.03125 64.753906 82.621094 66.652344 C 77.210938 68.554688 72.296875 71.648438 68.242188 75.707031 C 64.1875 79.765625 61.09375 84.683594 59.191406 90.097656 C 57.289062 95.511719 56.628906 101.285156 57.253906 106.992188 L 61.921875 149.957031 C 62.300781 153.300781 61.832031 156.683594 60.550781 159.796875 C 59.269531 162.90625 57.222656 165.640625 54.601562 167.746094 L 20.921875 194.84375 C 16.457031 198.4375 12.851562 202.988281 10.375 208.160156 C 7.898438 213.332031 6.609375 218.992188 6.609375 224.726562 C 6.609375 230.464844 7.898438 236.125 10.375 241.296875 C 12.851562 246.46875 16.457031 251.019531 20.921875 254.609375 L 54.5625 281.691406 C 57.183594 283.796875 59.230469 286.53125 60.511719 289.644531 C 61.792969 292.753906 62.265625 296.136719 61.886719 299.480469 L 57.21875 342.445312 C 56.589844 348.148438 57.25 353.925781 59.148438 359.339844 C 61.046875 364.757812 64.136719 369.675781 68.191406 373.734375 C 72.246094 377.796875 77.15625 380.890625 82.566406 382.792969 C 87.976562 384.695312 93.746094 385.359375 99.445312 384.734375 L 142.382812 380.0625 C 145.722656 379.6875 149.101562 380.164062 152.207031 381.445312 C 155.316406 382.726562 158.046875 384.773438 160.15625 387.390625 L 187.246094 421.121094 C 190.832031 425.589844 195.378906 429.199219 200.546875 431.679688 C 205.714844 434.160156 211.371094 435.445312 217.097656 435.445312 C 222.828125 435.445312 228.484375 434.160156 233.652344 431.679688 C 238.820312 429.199219 243.363281 425.589844 246.953125 421.121094 L 274.003906 387.445312 C 276.113281 384.828125 278.847656 382.785156 281.953125 381.503906 C 285.058594 380.222656 288.4375 379.746094 291.777344 380.117188 L 334.699219 384.789062 C 340.398438 385.417969 346.164062 384.757812 351.578125 382.855469 C 356.988281 380.957031 361.902344 377.863281 365.957031 373.804688 C 370.011719 369.746094 373.105469 364.828125 375.007812 359.414062 C 376.90625 354 377.570312 348.222656 376.941406 342.519531 L 372.277344 299.535156 C 371.894531 296.191406 372.363281 292.808594 373.644531 289.695312 C 374.925781 286.585938 376.972656 283.851562 379.597656 281.746094 L 413.238281 254.664062 C 417.703125 251.074219 421.308594 246.523438 423.785156 241.351562 C 426.265625 236.179688 427.550781 230.519531 427.550781 224.78125 C 427.550781 219.046875 426.265625 213.386719 423.785156 208.214844 C 421.308594 203.042969 417.703125 198.492188 413.238281 194.898438 Z M 224.421875 280.921875 C 221.609375 284.585938 218.054688 287.617188 213.984375 289.804688 C 209.917969 291.996094 205.4375 293.296875 200.832031 293.625 C 196.226562 293.953125 191.601562 293.304688 187.265625 291.714844 C 182.929688 290.125 178.980469 287.632812 175.675781 284.402344 L 130.945312 239.734375 C 129.195312 238.042969 127.800781 236.023438 126.84375 233.785156 C 125.882812 231.550781 125.378906 229.144531 125.359375 226.714844 C 125.335938 224.28125 125.800781 221.867188 126.71875 219.617188 C 127.640625 217.363281 129 215.320312 130.71875 213.597656 C 132.4375 211.878906 134.480469 210.519531 136.730469 209.597656 C 138.980469 208.675781 141.390625 208.210938 143.820312 208.234375 C 146.25 208.253906 148.652344 208.761719 150.882812 209.71875 C 153.117188 210.679688 155.136719 212.078125 156.824219 213.824219 L 198.027344 255.070312 L 269.574219 159.59375 C 272.488281 155.707031 276.824219 153.136719 281.628906 152.449219 C 284.007812 152.109375 286.433594 152.242188 288.761719 152.839844 C 291.089844 153.433594 293.277344 154.484375 295.199219 155.929688 C 297.121094 157.371094 298.742188 159.179688 299.964844 161.25 C 301.191406 163.320312 301.996094 165.613281 302.335938 167.996094 C 302.675781 170.378906 302.546875 172.804688 301.949219 175.132812 C 301.351562 177.464844 300.304688 179.652344 298.859375 181.578125 Z M 224.421875 280.921875 "/>
</g>
</g>
</svg>
