<svg width="85" height="79" viewBox="0 0 85 79" fill="none" xmlns="http://www.w3.org/2000/svg">
<path fill-rule="evenodd" clip-rule="evenodd" d="M42.0684 1.00561C53.2559 1.18384 63.8463 6.29211 70.6566 15.1697C77.3133 23.8471 78.3318 35.0415 76.4419 45.8136C74.3937 57.4878 70.9377 70.614 60.0908 75.392C49.4624 80.0738 38.0348 73.0217 28.018 67.1441C19.3251 62.0434 11.9937 55.1492 9.12567 45.487C5.99125 34.9273 5.75901 23.0921 12.3147 14.2403C19.1115 5.06278 30.6496 0.823693 42.0684 1.00561Z" fill="#EBFEFF"/>
<path d="M26.4951 45.6501V39.5161C26.4951 38.1901 27.5777 37.1075 28.9038 37.1075H36.6698V29.3437C36.6675 28.0177 37.7525 26.9351 39.0762 26.9351H45.2102C46.5362 26.9351 47.6188 28.0177 47.6188 29.3437V37.1075H55.3826C56.7086 37.1075 57.7912 38.1901 57.7912 39.5161V45.6501C57.7912 46.9762 56.7086 48.0588 55.3826 48.0588H47.6188V55.8249C47.6188 57.1509 46.5362 58.2335 45.2102 58.2335H39.0762C37.7501 58.2335 36.6675 57.1509 36.6675 55.8249V48.0588H28.9014C27.5777 48.0588 26.4951 46.9739 26.4951 45.6501Z" stroke="#0EC0CA" stroke-width="2" stroke-miterlimit="22.9256" stroke-linecap="round" stroke-linejoin="round"/>
<path d="M42.1432 76.6816C23.9856 68.8219 11.7266 53.9096 11.7266 36.804C11.7266 28.0393 11.8309 19.2554 11.8309 10.4822C14.5523 13.6849 20.0334 15.8739 26.3535 15.8739C33.913 15.8739 40.2714 12.7415 42.1432 8.48694C44.015 12.7415 50.3734 15.8739 57.9328 15.8739C64.253 15.8739 69.732 13.6849 72.4555 10.4822C72.4555 19.2554 72.5598 28.0393 72.5598 36.8061C72.5598 53.9096 60.3008 68.8219 42.1432 76.6816Z" stroke="#2F3033" stroke-width="2" stroke-miterlimit="22.9256" stroke-linecap="round" stroke-linejoin="round"/>
</svg>
